HIERARCHY
ROOT SpineBase
{
  OFFSET 0.000000 0.000000 0.000000
  CHANNELS 6 Xposition Yposition Zposition Zrotation Xrotation Yrotation
  JOINT SpineMid
  {
    OFFSET 0.000000 33.108402 0.000000
    CHANNELS 3 Zrotation Xrotation Yrotation
    JOINT SpineShoulder
    {
      OFFSET -0.087423 24.559011 -0.845358
      CHANNELS 3 Zrotation Xrotation Yrotation
      JOINT Neck
      {
        OFFSET -0.061385 8.104921 -0.646929
        CHANNELS 3 Zrotation Xrotation Yrotation
        JOINT Head
        {
          OFFSET 6.924838 12.958973 1.679425
          CHANNELS 3 Zrotation Xrotation Yrotation
          End Site
          {
            OFFSET 0 0 0
          }
        }
      }
      JOINT ShoulderLeft
      {
        OFFSET -11.446163 -4.351517 -12.854403
        CHANNELS 3 Zrotation Xrotation Yrotation
        JOINT ElbowLeft
        {
          OFFSET -6.509039 -24.067716 -5.756314
          CHANNELS 3 Zrotation Xrotation Yrotation
          JOINT WristLeft
          {
            OFFSET 3.133168 -27.798963 -5.356718
            CHANNELS 3 Zrotation Xrotation Yrotation
            JOINT HandLeft
            {
              OFFSET 0.296136 -5.007911 -0.145736
              CHANNELS 3 Zrotation Xrotation Yrotation
              JOINT HandTipLeft
              {
                OFFSET 0.753197 -6.358028 0.205292
                CHANNELS 3 Zrotation Xrotation Yrotation
                End Site
                {
                  OFFSET 0 0 0
                }
              }
              JOINT ThumbLeft
              {
                OFFSET 3.499105 1.482258 1.024368
                CHANNELS 3 Zrotation Xrotation Yrotation
                End Site
                {
                  OFFSET 0 0 0
                }
              }
            }
          }
        }
      }
      JOINT ShoulderRight
      {
        OFFSET 12.566862 -7.267056 9.564676
        CHANNELS 3 Zrotation Xrotation Yrotation
        JOINT ElbowRight
        {
          OFFSET -2.173991 -28.082163 17.077768
          CHANNELS 3 Zrotation Xrotation Yrotation
          JOINT WristRight
          {
            OFFSET 4.798216 -23.572636 -15.704649
            CHANNELS 3 Zrotation Xrotation Yrotation
            JOINT HandRight
            {
              OFFSET -0.856687 -5.034214 -2.537080
              CHANNELS 3 Zrotation Xrotation Yrotation
              JOINT HandTipRight
              {
                OFFSET 0.181570 -5.294317 -1.795501
                CHANNELS 3 Zrotation Xrotation Yrotation
                End Site
                {
                  OFFSET 0 0 0
                }
              }
              JOINT ThumbRight
              {
                OFFSET -2.182784 0.895797 -3.987853
                CHANNELS 3 Zrotation Xrotation Yrotation
                End Site
                {
                  OFFSET 0 0 0
                }
              }
            }
          }
        }
      }
    }
  }
  JOINT HipLeft
  {
    OFFSET -5.671541 1.744967 -8.601421
    CHANNELS 3 Zrotation Xrotation Yrotation
    JOINT KneeLeft
    {
      OFFSET -10.760047 -34.454819 -2.975552
      CHANNELS 3 Zrotation Xrotation Yrotation
      JOINT AnkleLeft
      {
        OFFSET -10.897512 -34.807204 4.375688
        CHANNELS 3 Zrotation Xrotation Yrotation
        JOINT FootLeft
        {
          OFFSET 2.058142 -8.385283 -4.630468
          CHANNELS 3 Zrotation Xrotation Yrotation
          End Site
          {
            OFFSET 0 0 0
          }
        }
      }
    }
  }
  JOINT HipRight
  {
    OFFSET 5.197847 0.049620 0.800652
    CHANNELS 3 Zrotation Xrotation Yrotation
    JOINT KneeRight
    {
      OFFSET -4.998208 -37.284803 3.231339
      CHANNELS 3 Zrotation Xrotation Yrotation
      JOINT AnkleRight
      {
        OFFSET -9.538574 -34.154305 7.067982
        CHANNELS 3 Zrotation Xrotation Yrotation
        JOINT FootRight
        {
          OFFSET 8.183659 -2.717629 -13.291704
          CHANNELS 3 Zrotation Xrotation Yrotation
          End Site
          {
            OFFSET 0 0 0
          }
        }
      }
    }
  }
}
MOTION
Frames: 5
Frame Time: 0.033333
27.187574 80.001224 343.204097 -5.851725 1.859773 -43.631076 -0.333541 -0.000473 43.531387 0.338299 -0.109922 -0.242211 -9.429293 5.255370 -0.851188 0.000000 0.000000 0.000000 -2.348862 2.779286 1.222783 -4.822520 -0.805801 2.038056 19.520365 -21.151417 -2.106746 -28.950381 25.857265 10.814863 0.000000 0.000000 0.000000 0.000000 0.000000 0.000000 5.770444 -1.934341 0.542886 -8.915012 -3.360911 5.185228 1.637091 6.556394 -1.729895 -0.912203 -3.531353 -0.702195 0.000000 0.000000 0.000000 0.000000 0.000000 0.000000 -3.562249 2.861022 42.622098 2.333358 -3.232616 -0.066029 6.746760 5.209473 2.030343 0.000000 0.000000 0.000000 4.016549 5.322063 43.369812 -0.713627 -2.941073 0.313224 -27.117980 -41.116652 2.958491 0.000000 0.000000 0.000000
28.787979 80.541443 344.641017 -6.308685 2.231964 -45.381132 -0.323722 0.038518 45.299079 0.427499 -0.201571 -0.255226 -10.446372 5.128467 -0.754531 0.000000 0.000000 0.000000 -1.909339 2.758147 1.142574 -5.208075 -0.242808 2.323135 19.768365 -22.774453 -2.037063 -27.970936 25.544243 10.488327 0.000000 0.000000 0.000000 0.000000 0.000000 0.000000 6.099689 -2.237452 0.588452 -9.241099 -2.558753 5.613792 -0.134829 3.038398 -0.835778 2.413537 1.170822 -2.074206 0.000000 0.000000 0.000000 0.000000 0.000000 0.000000 -3.840207 3.138670 44.245588 1.662819 -3.443936 -0.219817 5.276906 6.338038 4.097615 0.000000 0.000000 0.000000 2.999900 5.094705 45.019272 -0.149063 -2.212789 -0.037012 -24.349203 -41.125926 6.153697 0.000000 0.000000 0.000000
30.309591 80.688884 345.951837 -6.598066 2.631076 -46.301172 -0.286086 0.012879 46.237223 0.368421 -0.134344 -0.267693 -11.114137 4.319690 -0.544693 0.000000 0.000000 0.000000 -0.970767 2.368558 0.994817 -5.866868 0.620030 2.651308 22.290082 -29.174710 -1.220767 -32.252096 27.143102 13.185901 0.000000 0.000000 0.000000 0.000000 0.000000 0.000000 6.440902 -2.656825 0.642572 -9.053883 -2.742214 5.439497 -2.611583 3.631613 0.595769 3.197309 5.135035 -2.067821 0.000000 0.000000 0.000000 0.000000 0.000000 0.000000 -4.601168 3.176352 45.012422 1.667196 -3.882275 -0.267973 2.129259 6.361039 6.682237 0.000000 0.000000 0.000000 1.969347 4.227150 45.826052 0.787176 -1.437276 -0.287012 -17.975944 -34.160088 6.884508 0.000000 0.000000 0.000000
31.494844 80.872095 346.881466 -6.804564 3.116540 -46.461305 -0.481422 -0.062353 46.418984 0.206438 -0.012446 -0.291776 -11.124090 2.535863 -0.213032 0.000000 0.000000 0.000000 0.263904 1.716612 0.845439 -6.353397 1.261605 2.906172 25.631042 -35.859949 0.313171 -38.728323 27.981409 17.085611 0.000000 0.000000 0.000000 0.000000 0.000000 0.000000 7.006457 -3.345146 0.737380 -8.898797 -2.916342 5.289659 -4.849938 6.028642 1.849625 9.250622 11.024017 -3.235907 0.000000 0.000000 0.000000 0.000000 0.000000 0.000000 -5.113503 3.192756 45.021468 1.726725 -4.260119 -0.281864 -2.517612 5.774749 9.786398 0.000000 0.000000 0.000000 1.694081 3.064238 45.915000 1.506258 -0.149812 -0.585318 -14.085503 -29.951684 6.002227 0.000000 0.000000 0.000000
32.559332 80.435572 347.779934 -7.093457 3.578379 -44.488004 -0.500851 -0.012068 44.476507 -0.027048 0.215886 -0.311749 -11.297990 1.645063 -0.212874 0.000000 0.000000 0.000000 1.263102 1.103575 0.735963 -7.363378 2.141916 3.319854 30.708830 -41.656920 2.690336 -44.351452 30.130827 21.131684 0.000000 0.000000 0.000000 0.000000 0.000000 0.000000 7.527611 -4.062320 0.835492 -8.967321 -2.866826 5.348734 -6.405647 8.023699 2.659535 3.001631 28.097863 2.259205 0.000000 0.000000 0.000000 0.000000 0.000000 0.000000 -6.033649 3.745082 42.818023 2.180254 -4.994549 -0.161582 -3.938771 3.089131 10.454128 0.000000 0.000000 0.000000 1.641324 1.478056 43.863521 2.658788 1.650361 -0.884144 -11.937815 -28.358524 5.281120 0.000000 0.000000 0.000000
